<?xml version="1.0" standalone="no"?>
<!DOCTYPE svg PUBLIC "-//W3C//DTD SVG 20010904//EN"
 "http://www.w3.org/TR/2001/REC-SVG-20010904/DTD/svg10.dtd">
<svg version="1.0" xmlns="http://www.w3.org/2000/svg"
 width="260.000000pt" height="260.000000pt" viewBox="0 0 260.000000 260.000000"
 preserveAspectRatio="xMidYMid meet">
<metadata>
Created by potrace 1.16, written by Peter Selinger 2001-2019
</metadata>
<g transform="translate(0.000000,260.000000) scale(0.100000,-0.100000)"
fill="#000000" stroke="none">
<path d="M0 1300 l0 -1300 1300 0 1300 0 0 1300 0 1300 -1300 0 -1300 0 0
-1300z m1374 1239 c-5 -9 6 -10 40 -5 30 5 46 4 46 -3 0 -7 16 -9 45 -6 25 3
45 2 45 -4 0 -5 10 -7 22 -3 16 4 19 2 13 -9 -8 -12 -6 -12 8 0 15 12 17 11
17 -3 0 -10 5 -14 10 -11 6 3 10 1 10 -5 0 -7 7 -10 15 -6 8 3 15 2 15 -3 0
-13 40 -21 41 -8 0 8 2 8 6 -1 2 -6 9 -10 14 -6 5 3 9 0 9 -6 0 -6 5 -8 10 -5
6 3 10 1 10 -5 0 -6 5 -8 10 -5 6 3 10 1 10 -5 0 -7 7 -10 15 -6 18 7 47 -3
40 -14 -3 -5 4 -6 15 -3 11 3 20 0 20 -6 0 -6 3 -10 8 -9 10 2 60 -19 75 -32
6 -6 38 -29 70 -51 31 -22 57 -44 57 -50 0 -5 5 -9 11 -9 12 0 123 -109 124
-121 0 -3 8 -13 18 -23 53 -53 -13 -14 -78 46 -96 89 -198 157 -315 212 -67
31 -193 77 -196 73 -1 -1 -20 -67 -43 -147 -23 -80 -46 -149 -51 -154 -5 -5
-33 -4 -68 3 -111 22 -212 24 -310 7 -123 -21 -120 -22 -132 24 -6 22 -13 40
-16 40 -2 0 -1 -12 2 -27 6 -23 4 -25 -13 -21 -16 4 -19 2 -16 -13 6 -21 -12
-26 -20 -6 -4 9 -7 9 -15 -1 -5 -7 -28 -13 -51 -14 -30 0 -44 -6 -52 -19 -7
-14 -17 -17 -33 -13 -14 3 -27 -1 -35 -10 -8 -9 -10 -16 -5 -16 5 0 2 -5 -6
-10 -11 -7 -17 -4 -22 13 l-6 22 -1 -22 c-1 -13 -6 -23 -12 -23 -6 0 -8 9 -3
23 3 12 3 19 -1 15 -4 -4 -18 6 -32 22 -34 41 -91 57 -146 41 -23 -7 -48 -18
-54 -23 -16 -13 -17 -32 -1 -22 6 4 4 -3 -5 -17 -10 -14 -17 -43 -17 -73 0
-65 -27 -125 -57 -126 -12 0 -28 6 -35 13 -13 14 -54 11 -64 -5 -3 -5 -1 -15
6 -23 7 -8 7 -15 1 -19 -5 -4 -12 -2 -16 4 -9 15 -28 12 -22 -3 3 -8 -1 -14
-9 -14 -17 0 -17 7 0 29 7 10 17 14 21 10 5 -4 5 -1 1 6 -6 11 19 63 47 97 4
6 21 29 38 53 17 23 36 39 41 35 6 -3 8 -1 5 4 -4 6 3 24 14 39 11 16 -2 4
-31 -26 -70 -75 -133 -172 -184 -282 l-44 -93 82 -28 c161 -57 221 -80 230
-88 6 -5 3 -35 -7 -76 -25 -106 -30 -199 -16 -293 7 -47 13 -96 13 -109 1 -27
4 -26 -209 -86 -72 -20 -137 -38 -146 -41 -21 -6 -43 62 -44 137 0 32 -4 52
-8 46 -13 -18 0 322 14 370 7 27 16 40 23 36 6 -4 5 0 -2 9 -9 11 -10 18 -2
23 6 3 8 11 5 16 -4 5 -2 9 2 9 5 0 8 14 7 30 -1 17 2 30 8 30 5 0 6 5 3 10
-3 6 1 10 10 10 9 0 13 5 10 10 -3 6 -2 10 3 10 6 0 9 15 8 33 0 19 4 31 10
30 7 -1 10 6 7 17 -4 15 0 20 13 21 12 0 14 3 6 6 -10 4 -9 9 5 20 10 8 11 11
3 7 -12 -7 -13 -5 -3 8 7 8 9 19 5 23 -4 5 0 6 8 3 10 -4 16 0 17 11 2 28 22
71 33 71 5 0 9 4 7 8 -4 14 56 82 72 82 14 0 14 1 1 10 -13 8 -12 11 5 24 11
9 24 16 29 16 20 0 64 53 59 69 -4 12 -3 13 4 3 11 -14 27 0 48 41 5 11 16 22
24 25 9 3 11 0 5 -9 -7 -12 -5 -12 9 0 20 16 23 26 5 15 -10 -6 -9 -3 0 8 8
10 20 14 29 11 12 -5 15 -2 10 9 -7 21 3 31 19 17 8 -7 14 -6 20 2 5 8 3 9 -6
4 -9 -5 -11 -4 -6 4 4 6 14 10 21 9 8 -2 21 6 30 17 9 11 14 13 10 5 -6 -13
-5 -13 7 0 7 8 19 15 26 16 29 2 33 5 27 14 -4 6 1 7 11 3 13 -5 15 -3 9 7 -5
9 -4 11 3 6 14 -8 82 22 82 36 0 5 4 6 10 3 5 -3 53 8 106 24 54 17 119 34
146 37 26 4 48 9 48 13 0 3 21 4 46 2 32 -2 44 0 40 8 -5 8 17 11 74 11 58 0
79 -3 74 -11z m296 -113 c0 -2 -7 -6 -15 -10 -8 -3 -15 -1 -15 4 0 6 7 10 15
10 8 0 15 -2 15 -4z m-1020 -301 c36 -19 50 -43 50 -87 0 -61 -45 -107 -105
-107 -97 -1 -140 106 -71 175 38 38 77 44 126 19z m1380 0 c37 -19 50 -43 50
-95 0 -59 -42 -100 -101 -100 -35 0 -47 6 -75 36 -86 91 14 217 126 159z
m-642 -32 c3 -22 1 -23 -87 -23 -82 0 -91 2 -91 18 0 10 2 21 4 23 3 2 42 4
88 4 78 0 83 -1 86 -22z m-330 -44 c2 -10 -20 -25 -68 -46 -61 -28 -72 -30
-77 -16 -7 18 13 36 72 64 45 21 68 21 73 -2z m574 -11 c49 -21 62 -36 48 -59
-7 -11 -21 -8 -72 16 -78 36 -82 40 -74 60 7 18 20 16 98 -17z m-842 14 c0
-13 -12 -22 -22 -16 -10 6 -1 24 13 24 5 0 9 -4 9 -8z m-50 -44 c0 -5 -4 -8
-10 -8 -5 0 -10 10 -10 23 0 18 2 19 10 7 5 -8 10 -18 10 -22z m725 13 c61
-16 172 -67 199 -92 19 -17 -19 -9 -72 16 -108 50 -180 66 -297 66 -124 0
-199 -18 -320 -78 -117 -58 -204 -136 -278 -248 -27 -42 -71 -164 -82 -227 -4
-28 -11 -38 -25 -38 -28 0 -31 12 -18 76 13 69 24 87 49 79 13 -5 19 2 24 27
27 122 178 291 326 365 60 29 140 56 199 66 71 12 229 6 295 -12z m-125 -36
c16 -19 16 -18 -42 -40 -27 -10 -48 -21 -48 -26 0 -4 -20 -29 -44 -56 -34 -37
-62 -55 -114 -76 -38 -15 -76 -27 -83 -27 -8 0 -20 -10 -28 -22 -12 -19 -14
-20 -23 -5 -11 21 -42 23 -35 2 4 -10 -4 -17 -30 -24 -19 -6 -43 -17 -52 -25
-9 -8 -32 -16 -51 -18 -27 -2 -34 -7 -32 -20 2 -11 -3 -18 -13 -18 -9 0 -14
-4 -11 -8 9 -15 -12 -35 -38 -37 -31 -1 -32 4 -5 57 16 32 23 38 31 27 7 -10
8 -8 3 8 -15 54 188 228 325 279 120 44 265 59 290 29z m-660 -75 c-8 -6 -22
-10 -30 -9 -9 0 -5 6 10 14 27 14 44 10 20 -5z m1200 -67 c29 -40 30 -44 10
-33 -20 11 -22 10 -17 -4 13 -33 -22 -15 -59 29 -34 42 -36 48 -24 70 l13 25
22 -20 c12 -12 37 -41 55 -67z m-1096 42 c5 -20 -1 -31 -31 -59 -43 -40 -48
-42 -57 -20 -6 16 56 104 74 104 4 0 11 -11 14 -25z m1020 -62 c17 -18 26 -33
23 -33 -12 0 -67 60 -67 72 0 7 3 8 8 3 4 -6 20 -25 36 -42z m100 -128 c9 -14
13 -25 8 -25 -5 0 -14 11 -20 25 -6 14 -10 25 -8 25 2 0 11 -11 20 -25z m556
-35 c39 -121 52 -370 28 -554 -12 -97 -19 -115 -40 -99 -7 6 -33 13 -58 16
-56 8 -292 75 -304 87 -5 5 -3 32 5 62 20 78 17 287 -5 367 -9 35 -14 67 -9
71 7 7 264 92 308 103 45 11 57 3 75 -53z m-455 -121 c5 -31 10 -38 17 -28 8
11 9 10 4 -4 -3 -10 2 -39 11 -65 12 -37 14 -70 10 -152 -9 -162 -60 -321
-133 -418 -75 -97 -83 -105 -99 -92 -22 18 -19 26 31 91 35 46 49 57 59 49 10
-8 17 -3 32 22 29 51 65 139 59 146 -3 3 -6 0 -6 -6 0 -7 -11 -12 -25 -12 -29
0 -29 3 -6 95 16 62 22 70 44 73 28 4 37 24 37 92 0 68 -9 88 -38 92 -22 3
-27 11 -42 75 -17 72 -17 72 4 76 12 2 24 5 28 6 3 0 9 -18 13 -40z m-1445
-180 c0 -52 -2 -60 -17 -57 -15 3 -18 13 -16 51 3 98 33 103 33 6z m47 -41
c-2 -13 -4 -3 -4 22 0 25 2 35 4 23 2 -13 2 -33 0 -45z m3 -95 c0 -10 9 -47
20 -83 20 -67 17 -79 -21 -80 -12 0 -20 20 -33 77 -16 73 -16 78 0 90 24 18
34 16 34 -4z m119 -362 c40 -49 49 -67 40 -77 -16 -19 -41 -3 -89 57 -39 50
-47 69 -33 83 14 14 32 0 82 -63z m-62 -126 c16 -18 23 -39 23 -70 0 -37 -5
-47 -35 -74 -49 -42 -87 -41 -131 3 -37 37 -44 81 -20 125 32 57 121 66 163
16z m1396 -5 c60 -67 11 -170 -81 -170 -62 0 -113 78 -91 138 28 76 117 93
172 32z m-220 16 c-23 -41 -150 -136 -228 -172 -61 -28 -84 -43 -81 -54 51
-182 77 -284 74 -297 -7 -37 -236 -67 -403 -53 -122 10 -221 28 -234 44 -7 8
3 63 29 166 22 85 40 155 40 156 0 1 -14 7 -30 14 -17 7 -29 14 -27 17 2 2 17
-2 33 -8 103 -41 293 -49 438 -19 126 26 225 75 315 156 72 65 89 76 74 50z
m-793 -114 c0 -4 -4 -13 -9 -21 -11 -17 -59 -2 -125 39 -41 26 -45 32 -36 50
10 19 13 19 90 -20 44 -22 80 -44 80 -48z m650 73 c15 -18 2 -31 -60 -64 -64
-34 -111 -45 -121 -30 -14 22 -11 25 34 43 23 9 58 27 77 40 41 29 53 31 70
11z m-332 -127 c-3 -22 -7 -23 -88 -23 -81 0 -85 1 -88 23 -3 21 -1 22 88 22
89 0 91 -1 88 -22z m-289 -417 c158 -21 472 -7 521 24 5 3 10 0 10 -8 0 -9
-16 -17 -42 -22 -42 -8 -42 -8 -13 -14 28 -7 28 -7 -15 -13 -25 -4 -72 -5
-105 -3 -52 3 -55 3 -20 -5 29 -6 16 -7 -45 -3 -47 2 -133 5 -192 6 -58 1
-102 5 -96 8 5 4 -16 13 -48 20 -33 8 -60 20 -62 29 -4 12 -2 13 9 4 8 -7 52
-17 98 -23z m94 -48 c-7 -2 -21 -2 -30 0 -10 3 -4 5 12 5 17 0 24 -2 18 -5z"/>
<path d="M981 2324 c0 -11 3 -14 6 -6 3 7 2 16 -1 19 -3 4 -6 -2 -5 -13z"/>
<path d="M664 2314 c-18 -14 -18 -15 4 -4 12 6 22 13 22 15 0 8 -5 6 -26 -11z"/>
<path d="M990 2279 c0 -13 5 -31 10 -39 7 -11 8 -5 4 20 -8 43 -14 51 -14 19z"/>
<path d="M2021 1184 c0 -11 3 -14 6 -6 3 7 2 16 -1 19 -3 4 -6 -2 -5 -13z"/>
<path d="M1483 133 c9 -2 23 -2 30 0 6 3 -1 5 -18 5 -16 0 -22 -2 -12 -5z"/>
</g>
</svg>
